{"title":"XArt - Light My Fire (Maria Alejandra)[11-28-2014].mp4","uid":15707386,"size":475919299,"categoryP":"porn","categoryS":"hd___movies","magnet":"?xt=urn:btih:1501faa83db5819ab2944e753de1f7678d91f20d&amp;dn=XArt+-+Light+My+Fire+%28Maria+Alejandra%29%5B11-28-2014%5D.mp4&amp;tr=udp%3A%2F%2Ftracker.leechers-paradise.org%3A6969&amp;tr=udp%3A%2F%2Fzer0day.ch%3A1337&amp;tr=udp%3A%2F%2Fopen.demonii.com%3A1337&amp;tr=udp%3A%2F%2Ftracker.coppersurfer.tk%3A6969&amp;tr=udp%3A%2F%2Fexodus.desync.com%3A6969","seeders":2,"leechers":2,"uploader":"freemetoo","files":1,"time":1472535479,"description":"General\r\nFormat                                   : MPEG-4\r\nFormat profile                           : Base Media\r\nCodec ID                                 : isom (isom/iso2/mp41)\r\nFile size                                : 454 MiB\r\nDuration                                 : 24mn 0s\r\nOverall bit rate mode                    : Variable\r\nOverall bit rate                         : 2 642 Kbps\r\nWriting application                      : Lavf56.4.103\r\n\r\nVideo\r\nID                                       : 1\r\nFormat                                   : MPEG-4 Visual\r\nFormat profile                           :   \r\nFormat settings, BVOP                    : No\r\nFormat settings, QPel                    : No\r\nFormat settings, GMC                     : No warppoints\r\nFormat settings, Matrix                  : Default (H.263)\r\nCodec ID                                 : 20\r\nDuration                                 : 24mn 0s\r\nBit rate mode                            : Variable\r\nBit rate                                 : 2 510 Kbps\r\nMaximum bit rate                         : 3 500 Kbps\r\nWidth                                    : 960 pixels\r\nHeight                                   : 540 pixels\r\nDisplay aspect ratio                     : 16:9\r\nFrame rate mode                          : Constant\r\nFrame rate                               : 25.000 fps\r\nColor space                              : YUV\r\nChroma subsampling                       : 4:2:0\r\nBit depth                                : 8 bits\r\nScan type                                : Progressive\r\nCompression mode                         : Lossy\r\nBits/(Pixel*Frame)                       : 0.194\r\nStream size                              : 431 MiB (95%)\r\nWriting library                          : Lavc56.1.101\r\n\r\nAudio\r\nID                                       : 2\r\nFormat                                   : AAC\r\nFormat/Info                              : Advanced Audio Codec\r\nFormat profile                           : LC\r\nCodec ID                                 : 40\r\nDuration                                 : 24mn 0s\r\nBit rate mode                            : Constant\r\nBit rate                                 : 128 Kbps\r\nChannel(s)                               : 2 channels\r\nChannel positions                        : Front: L R\r\nSampling rate                            : 48.0 KHz\r\nFrame rate                               : 46.875 fps (1024 spf)\r\nCompression mode                         : Lossy\r\nStream size                              : 21.9 MiB (5%)\r\nDefault                                  : Yes\r\nAlternate group                          : 1","torrent":{"xt":"urn:btih:1501faa83db5819ab2944e753de1f7678d91f20d","amp;dn":"XArt+-+Light+My+Fire+%28Maria+Alejandra%29%5B11-28-2014%5D.mp4","amp;tr":["udp%3A%2F%2Ftracker.leechers-paradise.org%3A6969","udp%3A%2F%2Fzer0day.ch%3A1337","udp%3A%2F%2Fopen.demonii.com%3A1337","udp%3A%2F%2Ftracker.coppersurfer.tk%3A6969","udp%3A%2F%2Fexodus.desync.com%3A6969"],"infoHash":"1501faa83db5819ab2944e753de1f7678d91f20d","infoHashBuffer":{"type":"Buffer","data":[21,1,250,168,61,181,129,154,178,148,78,117,61,225,247,103,141,145,242,13]},"announce":[],"urlList":[]}}